<?xml version="1.0" encoding="utf-8"?>
<!-- Generator: Adobe Illustrator 19.2.0, SVG Export Plug-In . SVG Version: 6.00 Build 0)  -->
<svg version="1.1" id="Layer_1" xmlns="http://www.w3.org/2000/svg" xmlns:xlink="http://www.w3.org/1999/xlink" x="0px" y="0px"
	 viewBox="0 0 290.1 290" style="enable-background:new 0 0 290.1 290;" xml:space="preserve">
<style type="text/css">
	.st0{fill:#231F20;}
</style>
<path class="st0" d="M173.3,145.1L284.2,34.2c7.8-7.8,7.8-20.5,0-28.3s-20.5-7.8-28.3,0L145.1,116.8L34.2,5.9C26.4-2,13.7-2,5.9,5.9
	s-7.8,20.5,0,28.3l110.9,110.9L6,255.8c-7.8,7.8-7.8,20.5,0,28.3C9.9,288,15,290,20,290c5.1,0,10.2-2,14.1-5.9l110.9-110.9
	l110.9,110.9c3.9,3.9,9,5.9,14.1,5.9s10.2-2,14.1-5.9c7.8-7.8,7.8-20.5,0-28.3L173.3,145.1z"/>
</svg>
