<?xml version="1.0" encoding="iso-8859-1"?>
<!-- Generator: Adobe Illustrator 18.1.1, SVG Export Plug-In . SVG Version: 6.00 Build 0)  -->
<svg xmlns="http://www.w3.org/2000/svg" xmlns:xlink="http://www.w3.org/1999/xlink" version="1.1" id="Capa_1" x="0px" y="0px" viewBox="0 0 65.417 65.417" style="enable-background:new 0 0 65.417 65.417;" xml:space="preserve" width="512px" height="512px">
<g>
	<path d="M32.708,0.518C14.673,0.518,0,14.784,0,32.319c0,1.337,1.051,2.418,2.371,2.487   c0.045,5.476,1.554,10.825,4.386,15.483c5.558,9.148,15.26,14.61,25.952,14.61s20.393-5.462,25.952-14.61   c2.832-4.658,4.34-10.008,4.386-15.483c1.319-0.069,2.37-1.15,2.37-2.487C65.415,14.783,50.743,0.518,32.708,0.518z M32.708,5.518   c12.202,0,22.579,7.672,26.266,18.287c-0.357-0.084-0.729-0.139-1.114-0.139c-0.403,0-0.764,0.058-1.099,0.149   c-1.213,0.333-2.02,1.224-2.68,2.416c-0.008-0.002-0.016-0.006-0.025-0.008c0.002,0.014,0.006,0.027,0.008,0.041   c-0.096,0.178-0.193,0.357-0.268,0.549c-0.109,0.082-0.24,0.139-0.387,0.139c-0.127,0-0.238-0.045-0.34-0.105   c-0.698-1.823-2.434-3.123-4.49-3.171c-0.039-0.001-0.076-0.009-0.115-0.009c-0.67,0-1.301,0.146-1.882,0.388   c-0.048,0.02-0.097,0.036-0.146,0.058c-0.19,0.087-0.373,0.188-0.55,0.299c-0.899,0.538-1.624,1.336-2.04,2.308   c-0.219,0.51-0.334,1.069-0.37,1.649c-0.007,0.103-0.031,0.2-0.031,0.304c0,0.012-0.005,0.021-0.005,0.033   c-0.115,0.413-0.478,0.723-0.928,0.723c-0.404,0-0.752-0.246-0.9-0.597c-0.001-0.001-0.002-0.001-0.002-0.002   c-0.535-0.832-1.171-1.593-1.91-2.246c-1.864-1.648-4.309-2.657-6.993-2.657c-2.685,0-5.128,1.009-6.993,2.657   c-0.739,0.653-1.375,1.414-1.91,2.246c0,0.001,0,0.001-0.001,0.002c-0.149,0.351-0.497,0.597-0.901,0.597   c-0.45,0-0.813-0.31-0.928-0.723c0-0.012-0.004-0.021-0.004-0.033c0-0.104-0.025-0.201-0.031-0.304   c-0.036-0.58-0.151-1.14-0.37-1.649c-0.416-0.972-1.141-1.77-2.04-2.308c-0.177-0.11-0.359-0.212-0.55-0.299   c-0.048-0.021-0.097-0.038-0.145-0.058c-0.581-0.242-1.212-0.388-1.882-0.388c-0.039,0-0.076,0.008-0.115,0.009   c-2.057,0.048-3.792,1.348-4.491,3.171c-0.101,0.061-0.212,0.105-0.339,0.105c-0.147,0-0.277-0.057-0.387-0.139   c-0.075-0.191-0.172-0.371-0.269-0.549c0.003-0.014,0.006-0.027,0.008-0.041c-0.009,0.002-0.017,0.006-0.025,0.008   c-0.66-1.192-1.467-2.083-2.679-2.416c-0.335-0.092-0.695-0.149-1.099-0.149c-0.386,0-0.756,0.055-1.115,0.139   C10.129,13.19,20.506,5.518,32.708,5.518z M39.212,34.553c0,3.587-2.918,6.505-6.504,6.505s-6.504-2.918-6.504-6.505   c0-3.586,2.917-6.503,6.504-6.503S39.212,30.967,39.212,34.553z M55.241,48.212C50.414,56.156,41.991,60.9,32.707,60.9   c-9.283,0-17.707-4.743-22.533-12.688c-2.495-4.104-3.813-8.828-3.813-13.66c0-2.251,0.281-4.459,0.833-6.6   c0.118-0.018,0.238-0.03,0.361-0.03c1.191,0,1.652,0.821,1.935,1.925c0.001,0.006,0.004,0.01,0.005,0.016v1.23v3.725   c0,1.365,1.106,2.473,2.472,2.473s2.472-1.107,2.472-2.473v-3.781v-0.949c0.016-0.084,0.043-0.16,0.066-0.24   c0.311-1.061,1.279-1.84,2.44-1.84s2.13,0.779,2.44,1.84c0.03,0.1,0.057,0.201,0.073,0.307v0.814v1.436h0.012   c0.061,1.311,1.134,2.357,2.46,2.357c0.073,0,0.143-0.012,0.214-0.021c0.022-0.003,0.045-0.004,0.068-0.007   c0.098,5.708,4.764,10.324,10.495,10.324s10.397-4.616,10.495-10.324c0.022,0.003,0.045,0.004,0.068,0.007   c0.07,0.009,0.141,0.021,0.213,0.021c1.326,0,2.4-1.047,2.461-2.357h0.012v-1.436v-0.814c0.016-0.105,0.043-0.207,0.072-0.307   c0.311-1.061,1.279-1.84,2.441-1.84c1.16,0,2.129,0.779,2.439,1.84c0.023,0.08,0.051,0.156,0.066,0.24v0.949v3.781   c0,1.365,1.107,2.473,2.473,2.473s2.471-1.107,2.471-2.473v-3.725v-1.23c0.002-0.006,0.004-0.01,0.006-0.016   c0.283-1.104,0.743-1.925,1.935-1.925c0.123,0,0.243,0.013,0.36,0.03c0.553,2.141,0.834,4.349,0.834,6.6   C59.054,39.384,57.736,44.109,55.241,48.212z" fill="#FFFFFF"/>
</g>
<g>
</g>
<g>
</g>
<g>
</g>
<g>
</g>
<g>
</g>
<g>
</g>
<g>
</g>
<g>
</g>
<g>
</g>
<g>
</g>
<g>
</g>
<g>
</g>
<g>
</g>
<g>
</g>
<g>
</g>
</svg>
