<?xml version="1.0" encoding="UTF-8"?><!DOCTYPE svg PUBLIC "-//W3C//DTD SVG 1.1//EN" "http://www.w3.org/Graphics/SVG/1.1/DTD/svg11.dtd"><svg xmlns="http://www.w3.org/2000/svg"><symbol id="icon-change" viewBox="0 0 89.2 78.6">
    <path d="M0 57.6l32.7 21V63.2H88.8V51.9H32.7V36.5z"/>
    <path d="M56.5 15.5H.4v11.2h56.1v15.4l32.7-21L56.5 0z"/>
    <text transform="translate(-5.414 104.297)" font-family="Arial-BoldMT" font-size="5">
        Created by Anton Gajdosik
    </text>
    <text transform="translate(-5.414 109.297)" font-family="Arial-BoldMT" font-size="5">
        from the Noun Project
    </text>
</symbol><symbol id="icon-check" viewBox="0 0 20 20">
    <title/>
    <path d="M10 0C4.5 0 0 4.5 0 10s4.5 10 10 10 10-4.5 10-10S15.5 0 10 0zM8 15l-5-5 1.4-1.4L8 12.2l7.6-7.6L17 6l-9 9z" fill-rule="evenodd"/>
</symbol><symbol id="icon-close" viewBox="0 0 290.1 290">
    <style>
        .st0{fill:#231f20}
    </style>
    <path class="st0" d="M173.3 145.1L284.2 34.2c7.8-7.8 7.8-20.5 0-28.3s-20.5-7.8-28.3 0L145.1 116.8 34.2 5.9C26.4-2 13.7-2 5.9 5.9s-7.8 20.5 0 28.3l110.9 110.9L6 255.8c-7.8 7.8-7.8 20.5 0 28.3 3.9 3.9 9 5.9 14 5.9 5.1 0 10.2-2 14.1-5.9L145 173.2l110.9 110.9c3.9 3.9 9 5.9 14.1 5.9s10.2-2 14.1-5.9c7.8-7.8 7.8-20.5 0-28.3L173.3 145.1z"/>
</symbol><symbol id="icon-donut" viewBox="0 0 65.417 65.417">
    <path d="M32.708.518C14.673.518 0 14.784 0 32.319a2.493 2.493 0 0 0 2.371 2.487 30.265 30.265 0 0 0 4.386 15.483c5.558 9.148 15.26 14.61 25.952 14.61s20.393-5.462 25.952-14.61a30.277 30.277 0 0 0 4.386-15.483 2.493 2.493 0 0 0 2.37-2.487C65.415 14.783 50.743.518 32.708.518zm0 5c12.202 0 22.579 7.672 26.266 18.287a4.854 4.854 0 0 0-1.114-.139c-.403 0-.764.058-1.099.149-1.213.333-2.02 1.224-2.68 2.416l-.025-.008.008.041c-.096.178-.193.357-.268.549a.643.643 0 0 1-.387.139.664.664 0 0 1-.34-.105 4.928 4.928 0 0 0-4.49-3.171c-.039-.001-.076-.009-.115-.009-.67 0-1.301.146-1.882.388-.048.02-.097.036-.146.058-.19.087-.373.188-.55.299a4.993 4.993 0 0 0-2.04 2.308 4.946 4.946 0 0 0-.37 1.649c-.007.103-.031.2-.031.304 0 .012-.005.021-.005.033a.967.967 0 0 1-.928.723.977.977 0 0 1-.9-.597l-.002-.002a10.728 10.728 0 0 0-1.91-2.246 10.524 10.524 0 0 0-6.993-2.657 10.524 10.524 0 0 0-6.993 2.657 10.728 10.728 0 0 0-1.91 2.246l-.001.002a.98.98 0 0 1-.901.597.967.967 0 0 1-.928-.723c0-.012-.004-.021-.004-.033 0-.104-.025-.201-.031-.304a4.94 4.94 0 0 0-.37-1.649 4.993 4.993 0 0 0-2.04-2.308 4.862 4.862 0 0 0-.55-.299c-.048-.021-.097-.038-.145-.058a4.874 4.874 0 0 0-1.882-.388c-.039 0-.076.008-.115.009a4.93 4.93 0 0 0-4.491 3.171.649.649 0 0 1-.339.105.645.645 0 0 1-.387-.139 4.895 4.895 0 0 0-.269-.549l.008-.041-.025.008c-.66-1.192-1.467-2.083-2.679-2.416a4.095 4.095 0 0 0-1.099-.149 4.87 4.87 0 0 0-1.115.139C10.129 13.19 20.506 5.518 32.708 5.518zm6.504 29.035c0 3.587-2.918 6.505-6.504 6.505s-6.504-2.918-6.504-6.505c0-3.586 2.917-6.503 6.504-6.503s6.504 2.917 6.504 6.503zm16.029 13.659C50.414 56.156 41.991 60.9 32.707 60.9c-9.283 0-17.707-4.743-22.533-12.688a26.285 26.285 0 0 1-3.813-13.66c0-2.251.281-4.459.833-6.6.118-.018.238-.03.361-.03 1.191 0 1.652.821 1.935 1.925l.005.016v4.955a2.473 2.473 0 1 0 4.944 0v-4.73c.016-.084.043-.16.066-.24.311-1.061 1.279-1.84 2.44-1.84s2.13.779 2.44 1.84c.03.1.057.201.073.307v2.25h.012a2.465 2.465 0 0 0 2.46 2.357c.073 0 .143-.012.214-.021l.068-.007c.098 5.708 4.764 10.324 10.495 10.324s10.397-4.616 10.495-10.324l.068.007c.07.009.141.021.213.021 1.326 0 2.4-1.047 2.461-2.357h.012v-2.25c.016-.105.043-.207.072-.307a2.546 2.546 0 0 1 2.441-1.84c1.16 0 2.129.779 2.439 1.84.023.08.051.156.066.24v4.73a2.471 2.471 0 1 0 4.944 0v-4.955l.006-.016c.283-1.104.743-1.925 1.935-1.925.123 0 .243.013.36.03.553 2.141.834 4.349.834 6.6a26.272 26.272 0 0 1-3.812 13.66z"/>
</symbol><symbol id="icon-facebook" viewBox="0 0 10 19">
    <title>
        facebook
    </title>
    <path d="M9.766.157v2.946H8.014c-.64 0-1.071.134-1.295.402-.223.268-.335.67-.335 1.205v2.11h3.27l-.435 3.303H6.384v8.471H2.97v-8.47H.123V6.82H2.97V4.387c0-1.384.387-2.457 1.161-3.22C4.904.404 5.934.023 7.222.023c1.093 0 1.941.045 2.544.134z" fill-rule="evenodd"/>
</symbol></svg>